<svg xmlns="http://www.w3.org/2000/svg" width="1931" height="505" viewBox="0 0 1448.25 378.75"><defs><clipPath id="b"><path d="M89 1.063h157.516v246.21H89Zm0 0"/></clipPath><clipPath id="c"><path d="M194.59 1.063h32.523c10.543 0 19.086 8.546 19.086 19.09v207.94c0 10.544-8.543 19.087-19.086 19.087H89.625C147.551 227.547 210.665 35.266 194.59 1.063m0 0"/></clipPath><clipPath id="e"><path d="M11 1.063h202v246.21H11Zm0 0"/></clipPath><clipPath id="f"><path d="M90.582 247.18h-71.41a19 19 0 0 1-7.363-1.473C94.035 207.082 97.914 8.375 94.168 1.063h100.96c16.2 34.41 21.63 74.222 12.958 114.265-13.813 63.766-59.95 112.203-117.504 131.852m0 0"/></clipPath><clipPath id="h"><path d="M.082 1.063H115V246H.082Zm0 0"/></clipPath><clipPath id="i"><path d="M11.79 245.7a19.1 19.1 0 0 1-7.575-5.755C21.098 208.665 44.262 93.543.082 33.477V20.152c0-10.543 8.547-19.09 19.09-19.09h75.406a181.5 181.5 0 0 1 9.844 22.833C135.27 111.5 94.059 206.996 11.789 245.699m0 0"/></clipPath><clipPath id="k"><path d="M.082 33H35v207H.082Zm0 0"/></clipPath><clipPath id="l"><path d="M4.215 239.945a19 19 0 0 1-4.133-11.851V33.469c44.188 60.066 47.031 143 4.133 206.476m0 0"/></clipPath><clipPath id="a"><path d="M0 0h1350v248H0z"/></clipPath><linearGradient id="d" x1="173.31" x2="595.176" y1="490.621" y2="103.798" gradientTransform="translate(.083 1.064)scale(.49223)" gradientUnits="userSpaceOnUse"><stop offset="0" stop-color="#e2d5fc"/><stop offset=".004" stop-color="#e1d4fc"/><stop offset=".008" stop-color="#e1d4fc"/><stop offset=".012" stop-color="#e0d3fb"/><stop offset=".016" stop-color="#e0d2fb"/><stop offset=".02" stop-color="#dfd1fb"/><stop offset=".023" stop-color="#ded0fb"/><stop offset=".027" stop-color="#decffb"/><stop offset=".031" stop-color="#ddcffb"/><stop offset=".035" stop-color="#ddcefb"/><stop offset=".039" stop-color="#dccdfb"/><stop offset=".043" stop-color="#dcccfb"/><stop offset=".047" stop-color="#dbcbfb"/><stop offset=".051" stop-color="#dacbfb"/><stop offset=".055" stop-color="#dacafb"/><stop offset=".059" stop-color="#d9c9fb"/><stop offset=".063" stop-color="#d9c8fb"/><stop offset=".066" stop-color="#d8c7fa"/><stop offset=".07" stop-color="#d8c6fa"/><stop offset=".074" stop-color="#d7c6fa"/><stop offset=".078" stop-color="#d6c5fa"/><stop offset=".082" stop-color="#d6c4fa"/><stop offset=".086" stop-color="#d5c3fa"/><stop offset=".09" stop-color="#d5c2fa"/><stop offset=".094" stop-color="#d4c1fa"/><stop offset=".098" stop-color="#d4c1fa"/><stop offset=".102" stop-color="#d3c0fa"/><stop offset=".105" stop-color="#d2bffa"/><stop offset=".109" stop-color="#d2befa"/><stop offset=".113" stop-color="#d1bdfa"/><stop offset=".117" stop-color="#d1bdfa"/><stop offset=".121" stop-color="#d0bcf9"/><stop offset=".125" stop-color="#d0bbf9"/><stop offset=".129" stop-color="#cfbaf9"/><stop offset=".133" stop-color="#ceb9f9"/><stop offset=".137" stop-color="#ceb8f9"/><stop offset=".141" stop-color="#cdb8f9"/><stop offset=".145" stop-color="#cdb7f9"/><stop offset=".148" stop-color="#ccb6f9"/><stop offset=".152" stop-color="#ccb5f9"/><stop offset=".156" stop-color="#cbb4f9"/><stop offset=".16" stop-color="#cab3f9"/><stop offset=".164" stop-color="#cab3f9"/><stop offset=".168" stop-color="#c9b2f9"/><stop offset=".172" stop-color="#c9b1f9"/><stop offset=".176" stop-color="#c8b0f8"/><stop offset=".18" stop-color="#c8aff8"/><stop offset=".184" stop-color="#c7aff8"/><stop offset=".188" stop-color="#c6aef8"/><stop offset=".191" stop-color="#c6adf8"/><stop offset=".195" stop-color="#c5acf8"/><stop offset=".199" stop-color="#c5abf8"/><stop offset=".203" stop-color="#c4aaf8"/><stop offset=".207" stop-color="#c4aaf8"/><stop offset=".211" stop-color="#c3a9f8"/><stop offset=".215" stop-color="#c2a8f8"/><stop offset=".219" stop-color="#c2a7f8"/><stop offset=".223" stop-color="#c1a6f8"/><stop offset=".227" stop-color="#c1a6f8"/><stop offset=".23" stop-color="#c0a5f7"/><stop offset=".234" stop-color="#c0a4f7"/><stop offset=".238" stop-color="#bfa3f7"/><stop offset=".242" stop-color="#bea2f7"/><stop offset=".246" stop-color="#bea1f7"/><stop offset=".25" stop-color="#bda1f7"/><stop offset=".254" stop-color="#bda0f7"/><stop offset=".258" stop-color="#bc9ff7"/><stop offset=".262" stop-color="#bc9ef7"/><stop offset=".266" stop-color="#bb9df7"/><stop offset=".27" stop-color="#ba9cf7"/><stop offset=".273" stop-color="#ba9cf7"/><stop offset=".277" stop-color="#b99bf7"/><stop offset=".281" stop-color="#b99af6"/><stop offset=".285" stop-color="#b899f6"/><stop offset=".289" stop-color="#b898f6"/><stop offset=".293" stop-color="#b798f6"/><stop offset=".297" stop-color="#b697f6"/><stop offset=".301" stop-color="#b696f6"/><stop offset=".305" stop-color="#b595f6"/><stop offset=".309" stop-color="#b594f6"/><stop offset=".313" stop-color="#b493f6"/><stop offset=".316" stop-color="#b493f6"/><stop offset=".32" stop-color="#b392f6"/><stop offset=".324" stop-color="#b291f6"/><stop offset=".328" stop-color="#b290f6"/><stop offset=".332" stop-color="#b18ff6"/><stop offset=".336" stop-color="#b18ef5"/><stop offset=".34" stop-color="#b08ef5"/><stop offset=".344" stop-color="#b08df5"/><stop offset=".348" stop-color="#af8cf5"/><stop offset=".352" stop-color="#af8bf5"/><stop offset=".355" stop-color="#ae8af5"/><stop offset=".359" stop-color="#ad8af5"/><stop offset=".363" stop-color="#ad89f5"/><stop offset=".367" stop-color="#ac88f5"/><stop offset=".371" stop-color="#ac87f5"/><stop offset=".375" stop-color="#ab86f5"/><stop offset=".379" stop-color="#ab85f5"/><stop offset=".383" stop-color="#aa85f5"/><stop offset=".387" stop-color="#a984f5"/><stop offset=".391" stop-color="#a983f4"/><stop offset=".395" stop-color="#a882f4"/><stop offset=".398" stop-color="#a881f4"/><stop offset=".402" stop-color="#a780f4"/><stop offset=".406" stop-color="#a780f4"/><stop offset=".41" stop-color="#a67ff4"/><stop offset=".414" stop-color="#a57ef4"/><stop offset=".418" stop-color="#a57df4"/><stop offset=".422" stop-color="#a47cf4"/><stop offset=".426" stop-color="#a47cf4"/><stop offset=".43" stop-color="#a37bf4"/><stop offset=".434" stop-color="#a37af4"/><stop offset=".438" stop-color="#a279f4"/><stop offset=".441" stop-color="#a178f4"/><stop offset=".445" stop-color="#a177f3"/><stop offset=".449" stop-color="#a077f3"/><stop offset=".453" stop-color="#a076f3"/><stop offset=".457" stop-color="#9f75f3"/><stop offset=".461" stop-color="#9f74f3"/><stop offset=".465" stop-color="#9e73f3"/><stop offset=".469" stop-color="#9d73f3"/><stop offset=".473" stop-color="#9d72f3"/><stop offset=".477" stop-color="#9c71f3"/><stop offset=".48" stop-color="#9c70f3"/><stop offset=".484" stop-color="#9b6ff3"/><stop offset=".488" stop-color="#9b6ef3"/><stop offset=".492" stop-color="#9a6ef3"/><stop offset=".496" stop-color="#996df3"/><stop offset=".5" stop-color="#996cf2"/><stop offset=".504" stop-color="#986bf2"/><stop offset=".508" stop-color="#986af2"/><stop offset=".512" stop-color="#9769f2"/><stop offset=".516" stop-color="#9769f2"/><stop offset=".52" stop-color="#9668f2"/><stop offset=".523" stop-color="#9567f2"/><stop offset=".527" stop-color="#9566f2"/><stop offset=".531" stop-color="#9465f2"/><stop offset=".535" stop-color="#9465f2"/><stop offset=".539" stop-color="#9364f2"/><stop offset=".543" stop-color="#9363f2"/><stop offset=".547" stop-color="#9262f2"/><stop offset=".551" stop-color="#9161f2"/><stop offset=".555" stop-color="#9160f1"/><stop offset=".559" stop-color="#9060f1"/><stop offset=".563" stop-color="#905ff1"/><stop offset=".566" stop-color="#8f5ef1"/><stop offset=".57" stop-color="#8f5df1"/><stop offset=".574" stop-color="#8e5cf1"/><stop offset=".578" stop-color="#8d5bf1"/><stop offset=".582" stop-color="#8d5bf1"/><stop offset=".586" stop-color="#8c5af1"/><stop offset=".59" stop-color="#8c59f1"/><stop offset=".594" stop-color="#8b58f1"/><stop offset=".598" stop-color="#8b57f1"/><stop offset=".602" stop-color="#8a57f1"/><stop offset=".605" stop-color="#8956f1"/><stop offset=".609" stop-color="#8955f0"/><stop offset=".613" stop-color="#8854f0"/><stop offset=".617" stop-color="#8853f0"/><stop offset=".621" stop-color="#8752f0"/><stop offset=".625" stop-color="#8752f0"/><stop offset=".629" stop-color="#8651f0"/><stop offset=".633" stop-color="#8550f0"/><stop offset=".637" stop-color="#854ff0"/><stop offset=".641" stop-color="#844ef0"/><stop offset=".645" stop-color="#844df0"/><stop offset=".648" stop-color="#834df0"/><stop offset=".652" stop-color="#834cf0"/><stop offset=".656" stop-color="#824bf0"/><stop offset=".66" stop-color="#814aef"/><stop offset=".664" stop-color="#8149ef"/><stop offset=".668" stop-color="#8049ef"/><stop offset=".672" stop-color="#8048ef"/><stop offset=".676" stop-color="#7f47ef"/><stop offset=".68" stop-color="#7f46ef"/><stop offset=".684" stop-color="#7e45ef"/><stop offset=".688" stop-color="#7d44ef"/><stop offset=".691" stop-color="#7d44ef"/><stop offset=".695" stop-color="#7c43ef"/><stop offset=".699" stop-color="#7c42ef"/><stop offset=".703" stop-color="#7b41ef"/><stop offset=".707" stop-color="#7b40ef"/><stop offset=".711" stop-color="#7a40ef"/><stop offset=".715" stop-color="#793fee"/><stop offset=".719" stop-color="#793eee"/><stop offset=".723" stop-color="#783dee"/><stop offset=".727" stop-color="#783cee"/><stop offset=".73" stop-color="#773bee"/><stop offset=".734" stop-color="#773bee"/><stop offset=".738" stop-color="#763aee"/><stop offset=".742" stop-color="#7639ee"/><stop offset=".746" stop-color="#7538ee"/><stop offset=".75" stop-color="#7437ee"/><stop offset=".754" stop-color="#7436ee"/><stop offset=".758" stop-color="#7336ee"/><stop offset=".762" stop-color="#7335ee"/><stop offset=".766" stop-color="#7234ee"/><stop offset=".77" stop-color="#7233ed"/><stop offset=".773" stop-color="#7132ed"/><stop offset=".777" stop-color="#7032ed"/><stop offset=".781" stop-color="#7031ed"/><stop offset=".785" stop-color="#6f30ed"/><stop offset=".789" stop-color="#6f2fed"/><stop offset=".793" stop-color="#6e2eed"/><stop offset=".797" stop-color="#6e2ded"/><stop offset=".801" stop-color="#6d2ded"/><stop offset=".805" stop-color="#6c2ced"/><stop offset=".809" stop-color="#6c2bed"/><stop offset=".813" stop-color="#6b2aed"/><stop offset=".816" stop-color="#6b29ed"/><stop offset=".82" stop-color="#6a28ed"/><stop offset=".824" stop-color="#6a28ec"/><stop offset=".828" stop-color="#6927ec"/><stop offset=".832" stop-color="#6826ec"/><stop offset=".836" stop-color="#6825ec"/><stop offset=".84" stop-color="#6724ec"/><stop offset=".844" stop-color="#6724ec"/><stop offset=".848" stop-color="#6623ec"/><stop offset=".852" stop-color="#6622ec"/><stop offset=".855" stop-color="#6521ec"/><stop offset=".859" stop-color="#6420ec"/><stop offset=".863" stop-color="#641fec"/><stop offset=".867" stop-color="#631fec"/><stop offset=".871" stop-color="#631eec"/><stop offset=".875" stop-color="#621dec"/><stop offset=".879" stop-color="#621ceb"/><stop offset=".883" stop-color="#611beb"/><stop offset=".887" stop-color="#601beb"/><stop offset=".891" stop-color="#601aeb"/><stop offset=".895" stop-color="#5f19eb"/><stop offset=".898" stop-color="#5f18eb"/><stop offset=".902" stop-color="#5e18eb"/><stop offset=".906" stop-color="#5e17eb"/><stop offset=".938" stop-color="#5e17eb"/><stop offset="1" stop-color="#5e17eb"/></linearGradient><linearGradient id="g" x1="-30.125" x2="472.834" y1="430.015" y2="42.353" gradientTransform="translate(.083 1.064)scale(.49223)" gradientUnits="userSpaceOnUse"><stop offset="0" stop-color="#fbf9ff"/><stop offset=".004" stop-color="#faf8ff"/><stop offset=".008" stop-color="#f9f7ff"/><stop offset=".012" stop-color="#f9f6ff"/><stop offset=".016" stop-color="#f8f5fe"/><stop offset=".02" stop-color="#f7f4fe"/><stop offset=".023" stop-color="#f6f3fe"/><stop offset=".027" stop-color="#f6f2fe"/><stop offset=".031" stop-color="#f5f1fe"/><stop offset=".035" stop-color="#f4f0fe"/><stop offset=".039" stop-color="#f4effe"/><stop offset=".043" stop-color="#f3eefe"/><stop offset=".047" stop-color="#f2edfe"/><stop offset=".051" stop-color="#f2ecfe"/><stop offset=".055" stop-color="#f1ebfe"/><stop offset=".059" stop-color="#f0eafd"/><stop offset=".063" stop-color="#efe9fd"/><stop offset=".066" stop-color="#efe8fd"/><stop offset=".07" stop-color="#eee7fd"/><stop offset=".074" stop-color="#ede6fd"/><stop offset=".078" stop-color="#ede5fd"/><stop offset=".082" stop-color="#ece4fd"/><stop offset=".086" stop-color="#ebe3fd"/><stop offset=".09" stop-color="#eae2fd"/><stop offset=".094" stop-color="#eae1fd"/><stop offset=".098" stop-color="#e9e0fd"/><stop offset=".102" stop-color="#e8dffd"/><stop offset=".105" stop-color="#e8defc"/><stop offset=".109" stop-color="#e7ddfc"/><stop offset=".113" stop-color="#e6dcfc"/><stop offset=".117" stop-color="#e6dbfc"/><stop offset=".121" stop-color="#e5dafc"/><stop offset=".125" stop-color="#e4d9fc"/><stop offset=".129" stop-color="#e3d7fc"/><stop offset=".133" stop-color="#e3d6fc"/><stop offset=".137" stop-color="#e2d5fc"/><stop offset=".141" stop-color="#e1d4fc"/><stop offset=".145" stop-color="#e1d3fc"/><stop offset=".148" stop-color="#e0d2fb"/><stop offset=".152" stop-color="#dfd1fb"/><stop offset=".156" stop-color="#ded0fb"/><stop offset=".16" stop-color="#decffb"/><stop offset=".164" stop-color="#ddcefb"/><stop offset=".168" stop-color="#dccdfb"/><stop offset=".172" stop-color="#dcccfb"/><stop offset=".176" stop-color="#dbcbfb"/><stop offset=".18" stop-color="#dacafb"/><stop offset=".184" stop-color="#d9c9fb"/><stop offset=".188" stop-color="#d9c8fb"/><stop offset=".191" stop-color="#d8c7fa"/><stop offset=".195" stop-color="#d7c6fa"/><stop offset=".199" stop-color="#d7c5fa"/><stop offset=".203" stop-color="#d6c4fa"/><stop offset=".207" stop-color="#d5c3fa"/><stop offset=".211" stop-color="#d5c2fa"/><stop offset=".215" stop-color="#d4c1fa"/><stop offset=".219" stop-color="#d3c0fa"/><stop offset=".223" stop-color="#d2bffa"/><stop offset=".227" stop-color="#d2befa"/><stop offset=".23" stop-color="#d1bdfa"/><stop offset=".234" stop-color="#d0bcf9"/><stop offset=".238" stop-color="#d0bbf9"/><stop offset=".242" stop-color="#cfbaf9"/><stop offset=".246" stop-color="#ceb9f9"/><stop offset=".25" stop-color="#cdb8f9"/><stop offset=".254" stop-color="#cdb7f9"/><stop offset=".258" stop-color="#ccb6f9"/><stop offset=".262" stop-color="#cbb5f9"/><stop offset=".266" stop-color="#cbb4f9"/><stop offset=".27" stop-color="#cab3f9"/><stop offset=".273" stop-color="#c9b2f9"/><stop offset=".277" stop-color="#c9b1f8"/><stop offset=".281" stop-color="#c8b0f8"/><stop offset=".285" stop-color="#c7aff8"/><stop offset=".289" stop-color="#c6aef8"/><stop offset=".293" stop-color="#c6adf8"/><stop offset=".297" stop-color="#c5acf8"/><stop offset=".301" stop-color="#c4abf8"/><stop offset=".305" stop-color="#c4aaf8"/><stop offset=".309" stop-color="#c3a9f8"/><stop offset=".313" stop-color="#c2a8f8"/><stop offset=".316" stop-color="#c1a7f8"/><stop offset=".32" stop-color="#c1a6f8"/><stop offset=".324" stop-color="#c0a5f7"/><stop offset=".328" stop-color="#bfa3f7"/><stop offset=".332" stop-color="#bfa2f7"/><stop offset=".336" stop-color="#bea1f7"/><stop offset=".34" stop-color="#bda0f7"/><stop offset=".344" stop-color="#bd9ff7"/><stop offset=".348" stop-color="#bc9ef7"/><stop offset=".352" stop-color="#bb9df7"/><stop offset=".355" stop-color="#ba9cf7"/><stop offset=".359" stop-color="#ba9bf7"/><stop offset=".363" stop-color="#b99af7"/><stop offset=".367" stop-color="#b899f6"/><stop offset=".371" stop-color="#b898f6"/><stop offset=".375" stop-color="#b797f6"/><stop offset=".379" stop-color="#b696f6"/><stop offset=".383" stop-color="#b595f6"/><stop offset=".387" stop-color="#b594f6"/><stop offset=".391" stop-color="#b493f6"/><stop offset=".395" stop-color="#b392f6"/><stop offset=".398" stop-color="#b391f6"/><stop offset=".402" stop-color="#b290f6"/><stop offset=".406" stop-color="#b18ff6"/><stop offset=".41" stop-color="#b18ef5"/><stop offset=".414" stop-color="#b08df5"/><stop offset=".418" stop-color="#af8cf5"/><stop offset=".422" stop-color="#ae8bf5"/><stop offset=".426" stop-color="#ae8af5"/><stop offset=".43" stop-color="#ad89f5"/><stop offset=".434" stop-color="#ac88f5"/><stop offset=".438" stop-color="#ac87f5"/><stop offset=".441" stop-color="#ab86f5"/><stop offset=".445" stop-color="#aa85f5"/><stop offset=".449" stop-color="#a984f5"/><stop offset=".453" stop-color="#a983f4"/><stop offset=".457" stop-color="#a882f4"/><stop offset=".461" stop-color="#a781f4"/><stop offset=".465" stop-color="#a780f4"/><stop offset=".469" stop-color="#a67ff4"/><stop offset=".473" stop-color="#a57ef4"/><stop offset=".477" stop-color="#a47df4"/><stop offset=".48" stop-color="#a47cf4"/><stop offset=".484" stop-color="#a37bf4"/><stop offset=".488" stop-color="#a27af4"/><stop offset=".492" stop-color="#a279f4"/><stop offset=".496" stop-color="#a178f3"/><stop offset=".5" stop-color="#a077f3"/><stop offset=".504" stop-color="#a076f3"/><stop offset=".508" stop-color="#9f75f3"/><stop offset=".512" stop-color="#9e74f3"/><stop offset=".516" stop-color="#9d73f3"/><stop offset=".52" stop-color="#9d72f3"/><stop offset=".523" stop-color="#9c71f3"/><stop offset=".527" stop-color="#9b6ff3"/><stop offset=".531" stop-color="#9b6ef3"/><stop offset=".535" stop-color="#9a6df3"/><stop offset=".539" stop-color="#996cf2"/><stop offset=".543" stop-color="#986bf2"/><stop offset=".547" stop-color="#986af2"/><stop offset=".551" stop-color="#9769f2"/><stop offset=".555" stop-color="#9668f2"/><stop offset=".559" stop-color="#9667f2"/><stop offset=".563" stop-color="#9566f2"/><stop offset=".566" stop-color="#9465f2"/><stop offset=".57" stop-color="#9464f2"/><stop offset=".574" stop-color="#9363f2"/><stop offset=".578" stop-color="#9262f2"/><stop offset=".582" stop-color="#9161f2"/><stop offset=".586" stop-color="#9160f1"/><stop offset=".59" stop-color="#905ff1"/><stop offset=".594" stop-color="#8f5ef1"/><stop offset=".598" stop-color="#8f5df1"/><stop offset=".602" stop-color="#8e5cf1"/><stop offset=".605" stop-color="#8d5bf1"/><stop offset=".609" stop-color="#8c5af1"/><stop offset=".613" stop-color="#8c59f1"/><stop offset=".617" stop-color="#8b58f1"/><stop offset=".621" stop-color="#8a57f1"/><stop offset=".625" stop-color="#8a56f1"/><stop offset=".629" stop-color="#8955f0"/><stop offset=".633" stop-color="#8854f0"/><stop offset=".637" stop-color="#8853f0"/><stop offset=".641" stop-color="#8752f0"/><stop offset=".645" stop-color="#8651f0"/><stop offset=".648" stop-color="#8550f0"/><stop offset=".652" stop-color="#854ff0"/><stop offset=".656" stop-color="#844ef0"/><stop offset=".66" stop-color="#834df0"/><stop offset=".664" stop-color="#834cf0"/><stop offset=".668" stop-color="#824bf0"/><stop offset=".672" stop-color="#814aef"/><stop offset=".676" stop-color="#8049ef"/><stop offset=".68" stop-color="#8048ef"/><stop offset=".684" stop-color="#7f47ef"/><stop offset=".688" stop-color="#7e46ef"/><stop offset=".691" stop-color="#7e45ef"/><stop offset=".695" stop-color="#7d44ef"/><stop offset=".699" stop-color="#7c43ef"/><stop offset=".703" stop-color="#7c42ef"/><stop offset=".707" stop-color="#7b41ef"/><stop offset=".711" stop-color="#7a40ef"/><stop offset=".715" stop-color="#793fee"/><stop offset=".719" stop-color="#793eee"/><stop offset=".723" stop-color="#783dee"/><stop offset=".727" stop-color="#773bee"/><stop offset=".73" stop-color="#773aee"/><stop offset=".734" stop-color="#7639ee"/><stop offset=".738" stop-color="#7538ee"/><stop offset=".742" stop-color="#7437ee"/><stop offset=".746" stop-color="#7436ee"/><stop offset=".75" stop-color="#7335ee"/><stop offset=".754" stop-color="#7234ee"/><stop offset=".758" stop-color="#7233ed"/><stop offset=".762" stop-color="#7132ed"/><stop offset=".766" stop-color="#7031ed"/><stop offset=".77" stop-color="#7030ed"/><stop offset=".773" stop-color="#6f2fed"/><stop offset=".777" stop-color="#6e2eed"/><stop offset=".781" stop-color="#6d2ded"/><stop offset=".785" stop-color="#6d2ced"/><stop offset=".789" stop-color="#6c2bed"/><stop offset=".793" stop-color="#6b2aed"/><stop offset=".797" stop-color="#6b29ed"/><stop offset=".801" stop-color="#6a28ed"/><stop offset=".805" stop-color="#6927ec"/><stop offset=".809" stop-color="#6826ec"/><stop offset=".813" stop-color="#6825ec"/><stop offset=".816" stop-color="#6724ec"/><stop offset=".82" stop-color="#6623ec"/><stop offset=".824" stop-color="#6622ec"/><stop offset=".828" stop-color="#6521ec"/><stop offset=".832" stop-color="#6420ec"/><stop offset=".836" stop-color="#631fec"/><stop offset=".84" stop-color="#631eec"/><stop offset=".844" stop-color="#621dec"/><stop offset=".848" stop-color="#611ceb"/><stop offset=".852" stop-color="#611beb"/><stop offset=".855" stop-color="#601aeb"/><stop offset=".859" stop-color="#5f19eb"/><stop offset=".863" stop-color="#5f18eb"/><stop offset=".867" stop-color="#5e17eb"/><stop offset=".875" stop-color="#5e17eb"/><stop offset="1" stop-color="#5e17eb"/></linearGradient><linearGradient id="j" x1="-32.926" x2="190.858" y1="482.79" y2="-36.13" gradientTransform="translate(.083 1.064)scale(.49223)" gradientUnits="userSpaceOnUse"><stop offset="0" stop-color="#f0eafd"/><stop offset=".004" stop-color="#efe9fd"/><stop offset=".008" stop-color="#efe8fd"/><stop offset=".012" stop-color="#eee7fd"/><stop offset=".016" stop-color="#ede6fd"/><stop offset=".02" stop-color="#ede5fd"/><stop offset=".023" stop-color="#ece4fd"/><stop offset=".027" stop-color="#ebe3fd"/><stop offset=".031" stop-color="#ebe2fd"/><stop offset=".035" stop-color="#eae1fd"/><stop offset=".039" stop-color="#e9e0fd"/><stop offset=".043" stop-color="#e8dffd"/><stop offset=".047" stop-color="#e8defc"/><stop offset=".051" stop-color="#e7ddfc"/><stop offset=".055" stop-color="#e6dcfc"/><stop offset=".059" stop-color="#e6dbfc"/><stop offset=".063" stop-color="#e5dafc"/><stop offset=".066" stop-color="#e4d9fc"/><stop offset=".07" stop-color="#e4d8fc"/><stop offset=".074" stop-color="#e3d7fc"/><stop offset=".078" stop-color="#e2d6fc"/><stop offset=".082" stop-color="#e2d5fc"/><stop offset=".086" stop-color="#e1d4fc"/><stop offset=".09" stop-color="#e0d3fb"/><stop offset=".094" stop-color="#e0d2fb"/><stop offset=".098" stop-color="#dfd1fb"/><stop offset=".102" stop-color="#ded0fb"/><stop offset=".105" stop-color="#ddcffb"/><stop offset=".109" stop-color="#ddcefb"/><stop offset=".113" stop-color="#dccdfb"/><stop offset=".117" stop-color="#dbccfb"/><stop offset=".121" stop-color="#dbcbfb"/><stop offset=".125" stop-color="#dacafb"/><stop offset=".129" stop-color="#d9c9fb"/><stop offset=".133" stop-color="#d9c8fb"/><stop offset=".137" stop-color="#d8c7fa"/><stop offset=".141" stop-color="#d7c6fa"/><stop offset=".145" stop-color="#d7c5fa"/><stop offset=".148" stop-color="#d6c4fa"/><stop offset=".152" stop-color="#d5c3fa"/><stop offset=".156" stop-color="#d5c2fa"/><stop offset=".16" stop-color="#d4c1fa"/><stop offset=".164" stop-color="#d3c0fa"/><stop offset=".168" stop-color="#d3bffa"/><stop offset=".172" stop-color="#d2befa"/><stop offset=".176" stop-color="#d1bdfa"/><stop offset=".18" stop-color="#d0bcf9"/><stop offset=".184" stop-color="#d0bbf9"/><stop offset=".188" stop-color="#cfbaf9"/><stop offset=".191" stop-color="#ceb9f9"/><stop offset=".195" stop-color="#ceb8f9"/><stop offset=".199" stop-color="#cdb7f9"/><stop offset=".203" stop-color="#ccb6f9"/><stop offset=".207" stop-color="#ccb5f9"/><stop offset=".211" stop-color="#cbb4f9"/><stop offset=".215" stop-color="#cab3f9"/><stop offset=".219" stop-color="#cab2f9"/><stop offset=".223" stop-color="#c9b1f9"/><stop offset=".227" stop-color="#c8b0f8"/><stop offset=".23" stop-color="#c8aff8"/><stop offset=".234" stop-color="#c7aef8"/><stop offset=".238" stop-color="#c6adf8"/><stop offset=".242" stop-color="#c5acf8"/><stop offset=".246" stop-color="#c5abf8"/><stop offset=".25" stop-color="#c4aaf8"/><stop offset=".254" stop-color="#c3a9f8"/><stop offset=".258" stop-color="#c3a8f8"/><stop offset=".262" stop-color="#c2a7f8"/><stop offset=".266" stop-color="#c1a6f8"/><stop offset=".27" stop-color="#c1a5f7"/><stop offset=".273" stop-color="#c0a4f7"/><stop offset=".277" stop-color="#bfa3f7"/><stop offset=".281" stop-color="#bfa2f7"/><stop offset=".285" stop-color="#bea1f7"/><stop offset=".289" stop-color="#bda0f7"/><stop offset=".293" stop-color="#bd9ff7"/><stop offset=".297" stop-color="#bc9ef7"/><stop offset=".301" stop-color="#bb9df7"/><stop offset=".305" stop-color="#bb9cf7"/><stop offset=".309" stop-color="#ba9cf7"/><stop offset=".313" stop-color="#b99bf7"/><stop offset=".316" stop-color="#b89af6"/><stop offset=".32" stop-color="#b899f6"/><stop offset=".324" stop-color="#b798f6"/><stop offset=".328" stop-color="#b697f6"/><stop offset=".332" stop-color="#b696f6"/><stop offset=".336" stop-color="#b595f6"/><stop offset=".34" stop-color="#b494f6"/><stop offset=".344" stop-color="#b493f6"/><stop offset=".348" stop-color="#b392f6"/><stop offset=".352" stop-color="#b291f6"/><stop offset=".355" stop-color="#b290f6"/><stop offset=".359" stop-color="#b18ff5"/><stop offset=".363" stop-color="#b08ef5"/><stop offset=".367" stop-color="#b08df5"/><stop offset=".371" stop-color="#af8cf5"/><stop offset=".375" stop-color="#ae8bf5"/><stop offset=".379" stop-color="#ad8af5"/><stop offset=".383" stop-color="#ad89f5"/><stop offset=".387" stop-color="#ac88f5"/><stop offset=".391" stop-color="#ab87f5"/><stop offset=".395" stop-color="#ab86f5"/><stop offset=".398" stop-color="#aa85f5"/><stop offset=".402" stop-color="#a984f5"/><stop offset=".406" stop-color="#a983f4"/><stop offset=".41" stop-color="#a882f4"/><stop offset=".414" stop-color="#a781f4"/><stop offset=".418" stop-color="#a780f4"/><stop offset=".422" stop-color="#a67ff4"/><stop offset=".426" stop-color="#a57ef4"/><stop offset=".43" stop-color="#a57df4"/><stop offset=".434" stop-color="#a47cf4"/><stop offset=".438" stop-color="#a37bf4"/><stop offset=".441" stop-color="#a37af4"/><stop offset=".445" stop-color="#a279f4"/><stop offset=".449" stop-color="#a178f4"/><stop offset=".453" stop-color="#a077f3"/><stop offset=".457" stop-color="#a076f3"/><stop offset=".461" stop-color="#9f75f3"/><stop offset=".465" stop-color="#9e74f3"/><stop offset=".469" stop-color="#9e73f3"/><stop offset=".473" stop-color="#9d72f3"/><stop offset=".477" stop-color="#9c71f3"/><stop offset=".48" stop-color="#9c70f3"/><stop offset=".484" stop-color="#9b6ff3"/><stop offset=".488" stop-color="#9a6ef3"/><stop offset=".492" stop-color="#9a6df3"/><stop offset=".496" stop-color="#996cf2"/><stop offset=".5" stop-color="#986bf2"/><stop offset=".504" stop-color="#986af2"/><stop offset=".508" stop-color="#9769f2"/><stop offset=".512" stop-color="#9668f2"/><stop offset=".516" stop-color="#9567f2"/><stop offset=".52" stop-color="#9566f2"/><stop offset=".523" stop-color="#9465f2"/><stop offset=".527" stop-color="#9364f2"/><stop offset=".531" stop-color="#9363f2"/><stop offset=".535" stop-color="#9262f2"/><stop offset=".539" stop-color="#9161f2"/><stop offset=".543" stop-color="#9160f1"/><stop offset=".547" stop-color="#905ff1"/><stop offset=".551" stop-color="#8f5ef1"/><stop offset=".555" stop-color="#8f5df1"/><stop offset=".559" stop-color="#8e5cf1"/><stop offset=".563" stop-color="#8d5bf1"/><stop offset=".566" stop-color="#8d5af1"/><stop offset=".57" stop-color="#8c59f1"/><stop offset=".574" stop-color="#8b58f1"/><stop offset=".578" stop-color="#8b57f1"/><stop offset=".582" stop-color="#8a56f1"/><stop offset=".586" stop-color="#8955f0"/><stop offset=".59" stop-color="#8854f0"/><stop offset=".594" stop-color="#8853f0"/><stop offset=".598" stop-color="#8752f0"/><stop offset=".602" stop-color="#8651f0"/><stop offset=".605" stop-color="#8650f0"/><stop offset=".609" stop-color="#854ff0"/><stop offset=".613" stop-color="#844ef0"/><stop offset=".617" stop-color="#844df0"/><stop offset=".621" stop-color="#834cf0"/><stop offset=".625" stop-color="#824bf0"/><stop offset=".629" stop-color="#824af0"/><stop offset=".633" stop-color="#8149ef"/><stop offset=".637" stop-color="#8048ef"/><stop offset=".641" stop-color="#8047ef"/><stop offset=".645" stop-color="#7f46ef"/><stop offset=".648" stop-color="#7e45ef"/><stop offset=".652" stop-color="#7d44ef"/><stop offset=".656" stop-color="#7d43ef"/><stop offset=".66" stop-color="#7c42ef"/><stop offset=".664" stop-color="#7b41ef"/><stop offset=".668" stop-color="#7b40ef"/><stop offset=".672" stop-color="#7a3fef"/><stop offset=".676" stop-color="#793eee"/><stop offset=".68" stop-color="#793eee"/><stop offset=".684" stop-color="#783dee"/><stop offset=".688" stop-color="#773cee"/><stop offset=".691" stop-color="#773bee"/><stop offset=".695" stop-color="#763aee"/><stop offset=".699" stop-color="#7539ee"/><stop offset=".703" stop-color="#7538ee"/><stop offset=".707" stop-color="#7437ee"/><stop offset=".711" stop-color="#7336ee"/><stop offset=".715" stop-color="#7335ee"/><stop offset=".719" stop-color="#7234ee"/><stop offset=".723" stop-color="#7133ed"/><stop offset=".727" stop-color="#7032ed"/><stop offset=".73" stop-color="#7031ed"/><stop offset=".734" stop-color="#6f30ed"/><stop offset=".738" stop-color="#6e2fed"/><stop offset=".742" stop-color="#6e2eed"/><stop offset=".746" stop-color="#6d2ded"/><stop offset=".75" stop-color="#6c2ced"/><stop offset=".754" stop-color="#6c2bed"/><stop offset=".758" stop-color="#6b2aed"/><stop offset=".762" stop-color="#6a29ed"/><stop offset=".766" stop-color="#6a28ec"/><stop offset=".77" stop-color="#6927ec"/><stop offset=".773" stop-color="#6826ec"/><stop offset=".777" stop-color="#6825ec"/><stop offset=".781" stop-color="#6724ec"/><stop offset=".785" stop-color="#6623ec"/><stop offset=".789" stop-color="#6522ec"/><stop offset=".793" stop-color="#6521ec"/><stop offset=".797" stop-color="#6420ec"/><stop offset=".801" stop-color="#631fec"/><stop offset=".805" stop-color="#631eec"/><stop offset=".809" stop-color="#621dec"/><stop offset=".813" stop-color="#611ceb"/><stop offset=".816" stop-color="#611beb"/><stop offset=".82" stop-color="#601aeb"/><stop offset=".824" stop-color="#5f19eb"/><stop offset=".828" stop-color="#5f18eb"/><stop offset=".844" stop-color="#5e17eb"/><stop offset=".875" stop-color="#5e17eb"/><stop offset="1" stop-color="#5e17eb"/></linearGradient><linearGradient id="m" x1="-89.28" x2="121.232" y1="431.663" y2="81.262" gradientTransform="translate(.083 1.064)scale(.49223)" gradientUnits="userSpaceOnUse"><stop offset="0" stop-color="#e0d2fb"/><stop offset=".004" stop-color="#dfd1fb"/><stop offset=".008" stop-color="#ded0fb"/><stop offset=".012" stop-color="#ded0fb"/><stop offset=".016" stop-color="#ddcffb"/><stop offset=".02" stop-color="#ddcefb"/><stop offset=".023" stop-color="#dccdfb"/><stop offset=".027" stop-color="#dcccfb"/><stop offset=".031" stop-color="#dbcbfb"/><stop offset=".035" stop-color="#dacbfb"/><stop offset=".039" stop-color="#dacafb"/><stop offset=".043" stop-color="#d9c9fb"/><stop offset=".047" stop-color="#d9c8fb"/><stop offset=".051" stop-color="#d8c7fa"/><stop offset=".055" stop-color="#d8c6fa"/><stop offset=".059" stop-color="#d7c6fa"/><stop offset=".063" stop-color="#d6c5fa"/><stop offset=".066" stop-color="#d6c4fa"/><stop offset=".07" stop-color="#d5c3fa"/><stop offset=".074" stop-color="#d5c2fa"/><stop offset=".078" stop-color="#d4c2fa"/><stop offset=".082" stop-color="#d4c1fa"/><stop offset=".086" stop-color="#d3c0fa"/><stop offset=".09" stop-color="#d2bffa"/><stop offset=".094" stop-color="#d2befa"/><stop offset=".098" stop-color="#d1bdfa"/><stop offset=".102" stop-color="#d1bdfa"/><stop offset=".105" stop-color="#d0bcf9"/><stop offset=".109" stop-color="#d0bbf9"/><stop offset=".113" stop-color="#cfbaf9"/><stop offset=".117" stop-color="#ceb9f9"/><stop offset=".121" stop-color="#ceb8f9"/><stop offset=".125" stop-color="#cdb8f9"/><stop offset=".129" stop-color="#cdb7f9"/><stop offset=".133" stop-color="#ccb6f9"/><stop offset=".137" stop-color="#ccb5f9"/><stop offset=".141" stop-color="#cbb4f9"/><stop offset=".145" stop-color="#cab3f9"/><stop offset=".148" stop-color="#cab3f9"/><stop offset=".152" stop-color="#c9b2f9"/><stop offset=".156" stop-color="#c9b1f9"/><stop offset=".16" stop-color="#c8b0f8"/><stop offset=".164" stop-color="#c8aff8"/><stop offset=".168" stop-color="#c7aef8"/><stop offset=".172" stop-color="#c6aef8"/><stop offset=".176" stop-color="#c6adf8"/><stop offset=".18" stop-color="#c5acf8"/><stop offset=".184" stop-color="#c5abf8"/><stop offset=".188" stop-color="#c4aaf8"/><stop offset=".191" stop-color="#c3a9f8"/><stop offset=".195" stop-color="#c3a9f8"/><stop offset=".199" stop-color="#c2a8f8"/><stop offset=".203" stop-color="#c2a7f8"/><stop offset=".207" stop-color="#c1a6f8"/><stop offset=".211" stop-color="#c1a5f7"/><stop offset=".215" stop-color="#c0a5f7"/><stop offset=".219" stop-color="#bfa4f7"/><stop offset=".223" stop-color="#bfa3f7"/><stop offset=".227" stop-color="#bea2f7"/><stop offset=".23" stop-color="#bea1f7"/><stop offset=".234" stop-color="#bda0f7"/><stop offset=".238" stop-color="#bda0f7"/><stop offset=".242" stop-color="#bc9ff7"/><stop offset=".246" stop-color="#bb9ef7"/><stop offset=".25" stop-color="#bb9df7"/><stop offset=".254" stop-color="#ba9cf7"/><stop offset=".258" stop-color="#ba9bf7"/><stop offset=".262" stop-color="#b99bf7"/><stop offset=".266" stop-color="#b99af6"/><stop offset=".27" stop-color="#b899f6"/><stop offset=".273" stop-color="#b798f6"/><stop offset=".277" stop-color="#b797f6"/><stop offset=".281" stop-color="#b696f6"/><stop offset=".285" stop-color="#b696f6"/><stop offset=".289" stop-color="#b595f6"/><stop offset=".293" stop-color="#b594f6"/><stop offset=".297" stop-color="#b493f6"/><stop offset=".301" stop-color="#b392f6"/><stop offset=".305" stop-color="#b391f6"/><stop offset=".309" stop-color="#b291f6"/><stop offset=".313" stop-color="#b290f6"/><stop offset=".316" stop-color="#b18ff6"/><stop offset=".32" stop-color="#b18ef5"/><stop offset=".324" stop-color="#b08df5"/><stop offset=".328" stop-color="#af8cf5"/><stop offset=".332" stop-color="#af8cf5"/><stop offset=".336" stop-color="#ae8bf5"/><stop offset=".34" stop-color="#ae8af5"/><stop offset=".344" stop-color="#ad89f5"/><stop offset=".348" stop-color="#ad88f5"/><stop offset=".352" stop-color="#ac87f5"/><stop offset=".355" stop-color="#ab87f5"/><stop offset=".359" stop-color="#ab86f5"/><stop offset=".363" stop-color="#aa85f5"/><stop offset=".367" stop-color="#aa84f5"/><stop offset=".371" stop-color="#a983f5"/><stop offset=".375" stop-color="#a983f4"/><stop offset=".379" stop-color="#a882f4"/><stop offset=".383" stop-color="#a781f4"/><stop offset=".387" stop-color="#a780f4"/><stop offset=".391" stop-color="#a67ff4"/><stop offset=".395" stop-color="#a67ef4"/><stop offset=".398" stop-color="#a57ef4"/><stop offset=".402" stop-color="#a47df4"/><stop offset=".406" stop-color="#a47cf4"/><stop offset=".41" stop-color="#a37bf4"/><stop offset=".414" stop-color="#a37af4"/><stop offset=".418" stop-color="#a279f4"/><stop offset=".422" stop-color="#a279f4"/><stop offset=".426" stop-color="#a178f3"/><stop offset=".43" stop-color="#a077f3"/><stop offset=".434" stop-color="#a076f3"/><stop offset=".438" stop-color="#9f75f3"/><stop offset=".441" stop-color="#9f74f3"/><stop offset=".445" stop-color="#9e74f3"/><stop offset=".449" stop-color="#9e73f3"/><stop offset=".453" stop-color="#9d72f3"/><stop offset=".457" stop-color="#9c71f3"/><stop offset=".461" stop-color="#9c70f3"/><stop offset=".465" stop-color="#9b6ff3"/><stop offset=".469" stop-color="#9b6ff3"/><stop offset=".473" stop-color="#9a6ef3"/><stop offset=".477" stop-color="#9a6df3"/><stop offset=".48" stop-color="#996cf2"/><stop offset=".484" stop-color="#986bf2"/><stop offset=".488" stop-color="#986af2"/><stop offset=".492" stop-color="#976af2"/><stop offset=".496" stop-color="#9769f2"/><stop offset=".5" stop-color="#9668f2"/><stop offset=".504" stop-color="#9667f2"/><stop offset=".508" stop-color="#9566f2"/><stop offset=".512" stop-color="#9466f2"/><stop offset=".516" stop-color="#9465f2"/><stop offset=".52" stop-color="#9364f2"/><stop offset=".523" stop-color="#9363f2"/><stop offset=".527" stop-color="#9262f2"/><stop offset=".531" stop-color="#9261f2"/><stop offset=".535" stop-color="#9161f1"/><stop offset=".539" stop-color="#9060f1"/><stop offset=".543" stop-color="#905ff1"/><stop offset=".547" stop-color="#8f5ef1"/><stop offset=".551" stop-color="#8f5df1"/><stop offset=".555" stop-color="#8e5cf1"/><stop offset=".559" stop-color="#8e5cf1"/><stop offset=".563" stop-color="#8d5bf1"/><stop offset=".566" stop-color="#8c5af1"/><stop offset=".57" stop-color="#8c59f1"/><stop offset=".574" stop-color="#8b58f1"/><stop offset=".578" stop-color="#8b57f1"/><stop offset=".582" stop-color="#8a57f1"/><stop offset=".586" stop-color="#8956f1"/><stop offset=".59" stop-color="#8955f0"/><stop offset=".594" stop-color="#8854f0"/><stop offset=".598" stop-color="#8853f0"/><stop offset=".602" stop-color="#8752f0"/><stop offset=".605" stop-color="#8752f0"/><stop offset=".609" stop-color="#8651f0"/><stop offset=".613" stop-color="#8550f0"/><stop offset=".617" stop-color="#854ff0"/><stop offset=".621" stop-color="#844ef0"/><stop offset=".625" stop-color="#844df0"/><stop offset=".629" stop-color="#834df0"/><stop offset=".633" stop-color="#834cf0"/><stop offset=".637" stop-color="#824bf0"/><stop offset=".641" stop-color="#814aef"/><stop offset=".645" stop-color="#8149ef"/><stop offset=".648" stop-color="#8049ef"/><stop offset=".652" stop-color="#8048ef"/><stop offset=".656" stop-color="#7f47ef"/><stop offset=".66" stop-color="#7f46ef"/><stop offset=".664" stop-color="#7e45ef"/><stop offset=".668" stop-color="#7d44ef"/><stop offset=".672" stop-color="#7d44ef"/><stop offset=".676" stop-color="#7c43ef"/><stop offset=".68" stop-color="#7c42ef"/><stop offset=".684" stop-color="#7b41ef"/><stop offset=".688" stop-color="#7b40ef"/><stop offset=".691" stop-color="#7a3fef"/><stop offset=".695" stop-color="#793fee"/><stop offset=".699" stop-color="#793eee"/><stop offset=".703" stop-color="#783dee"/><stop offset=".707" stop-color="#783cee"/><stop offset=".711" stop-color="#773bee"/><stop offset=".715" stop-color="#773aee"/><stop offset=".719" stop-color="#763aee"/><stop offset=".723" stop-color="#7539ee"/><stop offset=".727" stop-color="#7538ee"/><stop offset=".73" stop-color="#7437ee"/><stop offset=".734" stop-color="#7436ee"/><stop offset=".738" stop-color="#7335ee"/><stop offset=".742" stop-color="#7335ee"/><stop offset=".746" stop-color="#7234ee"/><stop offset=".75" stop-color="#7133ed"/><stop offset=".754" stop-color="#7132ed"/><stop offset=".758" stop-color="#7031ed"/><stop offset=".762" stop-color="#7030ed"/><stop offset=".766" stop-color="#6f30ed"/><stop offset=".77" stop-color="#6e2fed"/><stop offset=".773" stop-color="#6e2eed"/><stop offset=".777" stop-color="#6d2ded"/><stop offset=".781" stop-color="#6d2ced"/><stop offset=".785" stop-color="#6c2ced"/><stop offset=".789" stop-color="#6c2bed"/><stop offset=".793" stop-color="#6b2aed"/><stop offset=".797" stop-color="#6a29ed"/><stop offset=".801" stop-color="#6a28ed"/><stop offset=".805" stop-color="#6927ec"/><stop offset=".809" stop-color="#6927ec"/><stop offset=".813" stop-color="#6826ec"/><stop offset=".816" stop-color="#6825ec"/><stop offset=".82" stop-color="#6724ec"/><stop offset=".824" stop-color="#6623ec"/><stop offset=".828" stop-color="#6622ec"/><stop offset=".832" stop-color="#6522ec"/><stop offset=".836" stop-color="#6521ec"/><stop offset=".84" stop-color="#6420ec"/><stop offset=".844" stop-color="#641fec"/><stop offset=".848" stop-color="#631eec"/><stop offset=".852" stop-color="#621dec"/><stop offset=".855" stop-color="#621deb"/><stop offset=".859" stop-color="#611ceb"/><stop offset=".863" stop-color="#611beb"/><stop offset=".867" stop-color="#601aeb"/><stop offset=".871" stop-color="#6019eb"/><stop offset=".875" stop-color="#5f18eb"/><stop offset=".879" stop-color="#5e18eb"/><stop offset=".883" stop-color="#5e17eb"/><stop offset=".891" stop-color="#5e17eb"/><stop offset=".906" stop-color="#5e17eb"/><stop offset=".938" stop-color="#5e17eb"/><stop offset="1" stop-color="#5e17eb"/></linearGradient></defs><g clip-path="url(#a)" transform="translate(30 65)"><g clip-path="url(#b)"><g clip-path="url(#c)"><path fill="url(#d)" d="M89.625 1.063V247.18h156.574V1.063Zm0 0"/></g></g><g clip-path="url(#e)"><g clip-path="url(#f)"><path fill="url(#g)" d="M11.809 1.063V247.18h204.949V1.063Zm0 0"/></g></g><g clip-path="url(#h)"><g clip-path="url(#i)"><path fill="url(#j)" d="M.082 1.063v244.636H135.27V1.063Zm0 0"/></g></g><g clip-path="url(#k)"><g clip-path="url(#l)"><path fill="url(#m)" d="M.082 33.469v206.476h47.031V33.47Zm0 0"/></g></g><path fill="#fff" d="M209.695 193.816c5.782-10.02 2.348-22.824-7.664-28.605-10.015-5.785-22.824-2.352-28.605 7.668a20.8 20.8 0 0 0-2.371 6.207h-27.418a20.9 20.9 0 0 0-6.715-11.473l13.695-23.722c9.281 3.18 19.813-.532 24.903-9.348 5.78-10.016 2.351-22.824-7.668-28.606-5.665-3.269-12.22-3.59-17.899-1.44L136.422 81.05a20.9 20.9 0 0 0 4.922-5.781c5.785-10.016 2.351-22.82-7.664-28.602-10.016-5.781-22.825-2.352-28.606 7.66-5.781 10.02-2.351 22.824 7.664 28.606a20.9 20.9 0 0 0 16.52 1.914l13.82 23.93a20.8 20.8 0 0 0-3.828 4.824 21 21 0 0 0-2.453 6.617h-27.258c-1.094-5.781-4.605-11.07-10.105-14.242-10.016-5.782-22.82-2.348-28.602 7.664-5.09 8.816-3.043 19.793 4.352 26.242l-13.696 23.722c-9.281-3.18-19.808.532-24.898 9.348-5.781 10.016-2.356 22.824 7.664 28.602 10.016 5.785 22.82 2.351 28.605-7.66 5.086-8.817 3.04-19.793-4.355-26.243l13.695-23.722a20.92 20.92 0 0 0 13.656-.047l13.633 23.617a20.8 20.8 0 0 0-4.484 5.414c-5.781 10.016-2.348 22.824 7.668 28.606 10.012 5.78 22.82 2.347 28.601-7.668a20.8 20.8 0 0 0 2.461-6.668h27.243c1.085 5.8 4.601 11.109 10.113 14.293 10.015 5.78 22.82 2.351 28.605-7.66m-72.812-65.496a20.9 20.9 0 0 0 6.722 11.52l-13.695 23.726a20.9 20.9 0 0 0-13.37-.05l-13.692-23.72a21.1 21.1 0 0 0 4.254-5.214 20.9 20.9 0 0 0 2.378-6.262Zm0 0"/><path fill="#373a3d" d="M304.231 196.641V49.08h30.297v122.203h64.469v25.36Zm144.789 2.079q-10.502 0-18.828-3.657-8.316-3.669-13.063-10.953-4.751-7.28-4.75-18.078c0-6.133 1.117-11.25 3.36-15.344 2.25-4.094 5.32-7.395 9.218-9.906 3.895-2.508 8.332-4.407 13.313-5.688 4.988-1.289 10.222-2.203 15.703-2.734 6.406-.656 11.554-1.266 15.453-1.828q5.842-.844 8.516-2.625 2.67-1.782 2.671-5.344v-.5c0-3.031-.68-5.617-2.03-7.766q-2.035-3.218-5.891-4.953-3.863-1.734-9.407-1.734-5.658 0-9.86 1.734c-2.804 1.156-5.077 2.711-6.827 4.656q-2.627 2.924-3.719 6.579l-27.234-3.47c1.52-6.6 4.425-12.25 8.718-16.937q6.436-7.03 16.438-10.734 9.996-3.717 22.781-3.719 9.293 0 17.672 2.188 8.373 2.174 14.906 6.734 6.529 4.547 10.25 11.531c2.477 4.657 3.72 10.22 3.72 16.688v73.781h-28.235v-15.25h-.89q-2.673 5.144-7.08 9.063-4.405 3.907-10.546 6.093-6.143 2.17-14.36 2.172m8.312-20.704q7.031 0 12.281-2.766c3.5-1.851 6.239-4.328 8.22-7.421 1.976-3.102 2.968-6.602 2.968-10.5v-11.594q-1.376.796-3.86 1.594-2.471.784-5.64 1.375-3.175.596-6.39 1.093c-2.15.336-4.11.633-5.891.891q-5.344.797-9.516 2.531c-2.773 1.156-4.918 2.711-6.437 4.656q-2.267 2.925-2.266 7.266c0 2.781.707 5.133 2.125 7.047q2.122 2.86 5.844 4.344c2.476.992 5.332 1.484 8.562 1.484m73.289 58.345 5.359-22.578 5.734.781c3.633.789 6.82.922 9.563.39q4.106-.784 6.625-3.703 2.531-2.922 3.328-8.078l1.281-6.328-41.297-109.547h31.297l18.422 56.157q3.374 10.5 5.594 21.046a948 948 0 0 0 4.906 21.844h-7.125a1522 1522 0 0 1 5.344-21.89 333 333 0 0 1 6.031-21l19.125-56.157h31l-46.844 123.11q-3.375 8.813-8.484 15.14-5.097 6.34-12.531 9.703-7.424 3.375-17.907 3.375-5.658 0-10.765-.64c-3.399-.43-6.281-.969-8.656-1.625m165.894-37.547q-16.734.002-28.875-6.922-12.128-6.936-18.719-19.61-6.58-12.684-6.578-29.812 0-16.935 6.531-29.656 6.527-12.733 18.422-19.906 11.89-7.186 27.828-7.188 10.997 0 20.406 3.563 9.406 3.562 16.485 10.547 7.077 6.984 10.984 17.437 3.92 10.44 3.922 24.11v8.218h-92.797v-18.61h78.438l-13.766 4.845q0-8.515-2.672-14.75-2.671-6.246-7.875-9.657-5.204-3.421-12.828-3.422-7.629 0-12.984 3.47c-3.563 2.312-6.29 5.484-8.172 9.515-1.875 4.023-2.813 8.64-2.813 13.86v13.077q-.002 9.207 3.172 15.641 3.17 6.439 8.953 9.766 5.796 3.314 13.532 3.312 5.249.002 9.546-1.531 4.312-1.546 7.329-4.469 3.028-2.918 4.609-7.172l26.844 3.86q-2.58 9.504-9.266 16.593-6.69 7.081-16.734 10.985c-6.7 2.601-14.34 3.906-22.922 3.906m69.725-2.172V87.297h28.609v18.922h1q2.965-9.996 9.89-15.094 6.938-5.109 16.454-5.109 2.374.002 4.953.203 2.578.188 4.453.594v26.14q-1.877-.59-5.594-.937a79 79 0 0 0-7.187-.344q-6.533.002-11.828 2.875-5.298 2.86-8.282 8.11c-1.98 3.5-2.968 7.633-2.968 12.39v61.594Zm0 0"/><path fill="#5e17eb" d="M902.415 196.641h-38.22v-25.953h36.735q14.357.002 24.016-5.14 9.655-5.157 14.5-15.798 4.859-10.653 4.86-26.984-.001-16.249-4.86-26.844-4.845-10.593-14.453-15.75-9.598-5.156-23.86-5.156h-37.64V49.08h39.422c14.851 0 27.609 2.953 38.265 8.859q15.997 8.86 24.672 25.406 8.672 16.536 8.672 39.422 0 22.969-8.625 39.516-8.612 16.535-24.813 25.453-16.19 8.906-38.671 8.906M880.727 49.08v147.56H850.43V49.08Zm114.595 147.561V87.297h28.609v18.922h1q2.965-9.996 9.89-15.094 6.938-5.109 16.454-5.109 2.374.002 4.953.203 2.578.188 4.453.594v26.14q-1.877-.59-5.594-.937a79 79 0 0 0-7.187-.344q-6.533.002-11.828 2.875-5.298 2.86-8.282 8.11c-1.98 3.5-2.968 7.633-2.968 12.39v61.594Zm109.728 2.079q-10.501 0-18.827-3.657-8.316-3.669-13.063-10.953-4.751-7.28-4.75-18.078c0-6.133 1.117-11.25 3.36-15.344q3.373-6.14 9.218-9.906c3.895-2.508 8.332-4.407 13.313-5.688 4.988-1.289 10.222-2.203 15.703-2.734 6.406-.656 11.554-1.266 15.453-1.828q5.842-.844 8.516-2.625 2.67-1.782 2.671-5.344v-.5c0-3.031-.68-5.617-2.03-7.766q-2.035-3.218-5.891-4.953-3.863-1.734-9.407-1.734-5.658 0-9.86 1.734c-2.804 1.156-5.077 2.711-6.827 4.656q-2.627 2.924-3.719 6.579l-27.234-3.47c1.52-6.6 4.425-12.25 8.718-16.937q6.436-7.03 16.438-10.734 9.996-3.717 22.781-3.719 9.293 0 17.672 2.188 8.372 2.174 14.906 6.734 6.529 4.547 10.25 11.531c2.477 4.657 3.72 10.22 3.72 16.688v73.781h-28.235v-15.25h-.89q-2.673 5.144-7.08 9.063-4.405 3.907-10.546 6.093-6.143 2.17-14.36 2.172m8.313-20.704q7.032 0 12.281-2.766c3.5-1.851 6.239-4.328 8.22-7.421 1.976-3.102 2.968-6.602 2.968-10.5v-11.594q-1.376.796-3.86 1.594-2.471.784-5.64 1.375-3.175.596-6.39 1.093c-2.15.336-4.11.633-5.891.891q-5.345.797-9.516 2.531c-2.773 1.156-4.918 2.711-6.437 4.656q-2.267 2.925-2.266 7.266c0 2.781.707 5.133 2.125 7.047q2.122 2.86 5.844 4.344c2.476.992 5.332 1.484 8.562 1.484m100.124 18.626-32.578-109.344h31l9.61 39.922q2.577 11.097 5.39 23.828 2.823 12.72 5.297 27.47h-3.563q2.67-14.561 5.688-27.329 3.03-12.779 5.796-23.969l10.11-39.922h27.14l9.797 39.922q2.671 11.19 5.688 23.922 3.03 12.72 5.703 27.375h-3.469q2.484-14.56 5.156-27.281a1388 1388 0 0 1 5.25-24.016l9.61-39.922h31.484l-32.781 109.344h-30.203l-12.188-42.484a318 318 0 0 1-3.562-13.719 839 839 0 0 1-3.469-15.203 533 533 0 0 0-3.36-14.563h5.25a566 566 0 0 0-3.374 14.563 1106 1106 0 0 1-3.407 15.203c-1.156 4.992-2.367 9.562-3.625 13.719l-12.28 42.484Zm0 0"/></g></svg>
